<svg xmlns="http://www.w3.org/2000/svg" viewBox="0 0 512 512" width="512" height="512">
  <defs>
    <linearGradient id="bgGradMask" x1="0%" y1="0%" x2="100%" y2="100%">
      <stop offset="0%" stop-color="#0f172a" />
      <stop offset="100%" stop-color="#1e293b" />
    </linearGradient>
    <linearGradient id="accentGradMask" x1="0%" y1="0%" x2="100%" y2="100%">
      <stop offset="0%" stop-color="#3b82f6" />
      <stop offset="100%" stop-color="#60a5fa" />
    </linearGradient>
    <linearGradient id="goldGradMask" x1="0%" y1="0%" x2="100%" y2="100%">
      <stop offset="0%" stop-color="#f59e0b" />
      <stop offset="100%" stop-color="#fbbf24" />
    </linearGradient>
  </defs>
  <!-- Full bleed background without rounded corners for maskable icon -->
  <rect width="512" height="512" fill="url(#bgGradMask)" />
  <!-- Scaled content inside safe zone (scale 0.72 centered at 256, 256) -->
  <g transform="translate(256, 256) scale(0.72) translate(-256, -256)">
    <circle cx="256" cy="256" r="190" stroke="url(#accentGradMask)" stroke-width="10" fill="none" opacity="0.4" />
    <polygon points="256,100 376,190 376,370 256,430 136,370 136,190" fill="#1e293b" stroke="url(#accentGradMask)" stroke-width="14" stroke-linejoin="round" />
    <path d="M 210,190 L 256,150 L 302,190 L 286,220 L 226,220 Z" fill="url(#goldGradMask)" />
    <rect x="200" y="240" width="112" height="14" rx="4" fill="#ffffff" />
    <rect x="210" y="260" width="16" height="80" rx="4" fill="#60a5fa" />
    <rect x="248" y="260" width="16" height="80" rx="4" fill="#ffffff" />
    <rect x="286" y="260" width="16" height="80" rx="4" fill="#60a5fa" />
    <rect x="180" y="346" width="152" height="16" rx="6" fill="#ffffff" />
  </g>
</svg>
